<?xml version="1.0" encoding="UTF-8"?>
<!-- Created with Inkscape (http://www.inkscape.org/) -->
<svg width="297mm" height="210mm" version="1.1" viewBox="0 0 1122.5 793.7" xml:space="preserve" xmlns="http://www.w3.org/2000/svg"><defs><marker id="marker2" overflow="visible" markerHeight="1" markerWidth="1" orient="auto-start-reverse" preserveAspectRatio="xMidYMid" viewBox="0 0 1 1"><path transform="scale(.5)" d="m5.77 0-8.65 5v-10z" fill="context-stroke" fill-rule="evenodd" stroke="context-stroke" stroke-width="1pt"/></marker><marker id="Triangle" overflow="visible" markerHeight="1" markerWidth="1" orient="auto-start-reverse" preserveAspectRatio="xMidYMid" viewBox="0 0 1 1"><path transform="scale(.5)" d="m5.77 0-8.65 5v-10z" fill="context-stroke" fill-rule="evenodd" stroke="context-stroke" stroke-width="1pt"/></marker><marker id="Triangle-7" overflow="visible" markerHeight="1" markerWidth="1" orient="auto-start-reverse" preserveAspectRatio="xMidYMid" viewBox="0 0 1 1"><path transform="scale(.5)" d="m5.77 0-8.65 5v-10z" fill="context-stroke" fill-rule="evenodd" stroke="context-stroke" stroke-width="1pt"/></marker><marker id="marker2-2" overflow="visible" markerHeight="1" markerWidth="1" orient="auto-start-reverse" preserveAspectRatio="xMidYMid" viewBox="0 0 1 1"><path transform="scale(.5)" d="m5.77 0-8.65 5v-10z" fill="context-stroke" fill-rule="evenodd" stroke="context-stroke" stroke-width="1pt"/></marker><marker id="Triangle-7-7" overflow="visible" markerHeight="1" markerWidth="1" orient="auto-start-reverse" preserveAspectRatio="xMidYMid" viewBox="0 0 1 1"><path transform="scale(.5)" d="m5.77 0-8.65 5v-10z" fill="context-stroke" fill-rule="evenodd" stroke="context-stroke" stroke-width="1pt"/></marker><marker id="marker2-2-4" overflow="visible" markerHeight="1" markerWidth="1" orient="auto-start-reverse" preserveAspectRatio="xMidYMid" viewBox="0 0 1 1"><path transform="scale(.5)" d="m5.77 0-8.65 5v-10z" fill="context-stroke" fill-rule="evenodd" stroke="context-stroke" stroke-width="1pt"/></marker><marker id="Triangle-71" overflow="visible" markerHeight="1" markerWidth="1" orient="auto-start-reverse" preserveAspectRatio="xMidYMid" viewBox="0 0 1 1"><path transform="scale(.5)" d="m5.77 0-8.65 5v-10z" fill="context-stroke" fill-rule="evenodd" stroke="context-stroke" stroke-width="1pt"/></marker><marker id="marker2-5" overflow="visible" markerHeight="1" markerWidth="1" orient="auto-start-reverse" preserveAspectRatio="xMidYMid" viewBox="0 0 1 1"><path transform="scale(.5)" d="m5.77 0-8.65 5v-10z" fill="context-stroke" fill-rule="evenodd" stroke="context-stroke" stroke-width="1pt"/></marker><marker id="Triangle-7-7-8" overflow="visible" markerHeight="1" markerWidth="1" orient="auto-start-reverse" preserveAspectRatio="xMidYMid" viewBox="0 0 1 1"><path transform="scale(.5)" d="m5.77 0-8.65 5v-10z" fill="context-stroke" fill-rule="evenodd" stroke="context-stroke" stroke-width="1pt"/></marker><marker id="marker2-2-4-7" overflow="visible" markerHeight="1" markerWidth="1" orient="auto-start-reverse" preserveAspectRatio="xMidYMid" viewBox="0 0 1 1"><path transform="scale(.5)" d="m5.77 0-8.65 5v-10z" fill="context-stroke" fill-rule="evenodd" stroke="context-stroke" stroke-width="1pt"/></marker><marker id="Triangle-7-7-8-0" overflow="visible" markerHeight="1" markerWidth="1" orient="auto-start-reverse" preserveAspectRatio="xMidYMid" viewBox="0 0 1 1"><path transform="scale(.5)" d="m5.77 0-8.65 5v-10z" fill="context-stroke" fill-rule="evenodd" stroke="context-stroke" stroke-width="1pt"/></marker><marker id="marker2-2-4-7-2" overflow="visible" markerHeight="1" markerWidth="1" orient="auto-start-reverse" preserveAspectRatio="xMidYMid" viewBox="0 0 1 1"><path transform="scale(.5)" d="m5.77 0-8.65 5v-10z" fill="context-stroke" fill-rule="evenodd" stroke="context-stroke" stroke-width="1pt"/></marker><marker id="Triangle-7-7-8-0-0" overflow="visible" markerHeight="1" markerWidth="1" orient="auto-start-reverse" preserveAspectRatio="xMidYMid" viewBox="0 0 1 1"><path transform="scale(.5)" d="m5.77 0-8.65 5v-10z" fill="context-stroke" fill-rule="evenodd" stroke="context-stroke" stroke-width="1pt"/></marker><marker id="marker2-2-4-7-2-2" overflow="visible" markerHeight="1" markerWidth="1" orient="auto-start-reverse" preserveAspectRatio="xMidYMid" viewBox="0 0 1 1"><path transform="scale(.5)" d="m5.77 0-8.65 5v-10z" fill="context-stroke" fill-rule="evenodd" stroke="context-stroke" stroke-width="1pt"/></marker><marker id="Triangle-7-7-8-0-0-6" overflow="visible" markerHeight="1" markerWidth="1" orient="auto-start-reverse" preserveAspectRatio="xMidYMid" viewBox="0 0 1 1"><path transform="scale(.5)" d="m5.77 0-8.65 5v-10z" fill="context-stroke" fill-rule="evenodd" stroke="context-stroke" stroke-width="1pt"/></marker><marker id="marker2-2-4-7-2-2-8" overflow="visible" markerHeight="1" markerWidth="1" orient="auto-start-reverse" preserveAspectRatio="xMidYMid" viewBox="0 0 1 1"><path transform="scale(.5)" d="m5.77 0-8.65 5v-10z" fill="context-stroke" fill-rule="evenodd" stroke="context-stroke" stroke-width="1pt"/></marker><marker id="Triangle-7-7-8-2" overflow="visible" markerHeight="1" markerWidth="1" orient="auto-start-reverse" preserveAspectRatio="xMidYMid" viewBox="0 0 1 1"><path transform="scale(.5)" d="m5.77 0-8.65 5v-10z" fill="context-stroke" fill-rule="evenodd" stroke="context-stroke" stroke-width="1pt"/></marker><marker id="marker2-2-4-7-4" overflow="visible" markerHeight="1" markerWidth="1" orient="auto-start-reverse" preserveAspectRatio="xMidYMid" viewBox="0 0 1 1"><path transform="scale(.5)" d="m5.77 0-8.65 5v-10z" fill="context-stroke" fill-rule="evenodd" stroke="context-stroke" stroke-width="1pt"/></marker><marker id="Triangle-7-7-8-2-9" overflow="visible" markerHeight="1" markerWidth="1" orient="auto-start-reverse" preserveAspectRatio="xMidYMid" viewBox="0 0 1 1"><path transform="scale(.5)" d="m5.77 0-8.65 5v-10z" fill="context-stroke" fill-rule="evenodd" stroke="context-stroke" stroke-width="1pt"/></marker><marker id="marker2-2-4-7-4-6" overflow="visible" markerHeight="1" markerWidth="1" orient="auto-start-reverse" preserveAspectRatio="xMidYMid" viewBox="0 0 1 1"><path transform="scale(.5)" d="m5.77 0-8.65 5v-10z" fill="context-stroke" fill-rule="evenodd" stroke="context-stroke" stroke-width="1pt"/></marker><marker id="Triangle-7-7-8-2-9-4" overflow="visible" markerHeight="1" markerWidth="1" orient="auto-start-reverse" preserveAspectRatio="xMidYMid" viewBox="0 0 1 1"><path transform="scale(.5)" d="m5.77 0-8.65 5v-10z" fill="context-stroke" fill-rule="evenodd" stroke="context-stroke" stroke-width="1pt"/></marker><marker id="marker2-2-4-7-4-6-0" overflow="visible" markerHeight="1" markerWidth="1" orient="auto-start-reverse" preserveAspectRatio="xMidYMid" viewBox="0 0 1 1"><path transform="scale(.5)" d="m5.77 0-8.65 5v-10z" fill="context-stroke" fill-rule="evenodd" stroke="context-stroke" stroke-width="1pt"/></marker><marker id="marker2-3" overflow="visible" markerHeight="1" markerWidth="1" orient="auto-start-reverse" preserveAspectRatio="xMidYMid" viewBox="0 0 1 1"><path transform="scale(.5)" d="m5.77 0-8.65 5v-10z" fill="context-stroke" fill-rule="evenodd" stroke="context-stroke" stroke-width="1pt"/></marker><marker id="marker2-3-0" overflow="visible" markerHeight="1" markerWidth="1" orient="auto-start-reverse" preserveAspectRatio="xMidYMid" viewBox="0 0 1 1"><path transform="scale(.5)" d="m5.77 0-8.65 5v-10z" fill="context-stroke" fill-rule="evenodd" stroke="context-stroke" stroke-width="1pt"/></marker><marker id="marker2-3-0-3" overflow="visible" markerHeight="1" markerWidth="1" orient="auto-start-reverse" preserveAspectRatio="xMidYMid" viewBox="0 0 1 1"><path transform="scale(.5)" d="m5.77 0-8.65 5v-10z" fill="context-stroke" fill-rule="evenodd" stroke="context-stroke" stroke-width="1pt"/></marker><marker id="marker2-3-0-3-9" overflow="visible" markerHeight="1" markerWidth="1" orient="auto-start-reverse" preserveAspectRatio="xMidYMid" viewBox="0 0 1 1"><path transform="scale(.5)" d="m5.77 0-8.65 5v-10z" fill="context-stroke" fill-rule="evenodd" stroke="context-stroke" stroke-width="1pt"/></marker><marker id="marker2-3-0-3-9-5" overflow="visible" markerHeight="1" markerWidth="1" orient="auto-start-reverse" preserveAspectRatio="xMidYMid" viewBox="0 0 1 1"><path transform="scale(.5)" d="m5.77 0-8.65 5v-10z" fill="context-stroke" fill-rule="evenodd" stroke="context-stroke" stroke-width="1pt"/></marker><marker id="marker2-3-0-3-9-3" overflow="visible" markerHeight="1" markerWidth="1" orient="auto-start-reverse" preserveAspectRatio="xMidYMid" viewBox="0 0 1 1"><path transform="scale(.5)" d="m5.77 0-8.65 5v-10z" fill="context-stroke" fill-rule="evenodd" stroke="context-stroke" stroke-width="1pt"/></marker><marker id="marker2-3-0-3-9-3-4" overflow="visible" markerHeight="1" markerWidth="1" orient="auto-start-reverse" preserveAspectRatio="xMidYMid" viewBox="0 0 1 1"><path transform="scale(.5)" d="m5.77 0-8.65 5v-10z" fill="context-stroke" fill-rule="evenodd" stroke="context-stroke" stroke-width="1pt"/></marker></defs><g><path d="m311.69 316.75h59.53l0.0918 173.55-8.2727-1.6226-7.0041-8.9455-13.744-37.76-14.868-39.852-15.719-11.086 0.0238-18.427z" fill="#e2da00" opacity=".601"/><path d="m570.07 583.76-18.905 0.043-0.11602 70.628 9.3678-6.6874 9.2142-2.0265z" fill="#b2d373" opacity=".702"/><path d="m699.2 670.2 26.678 12.564 22.393 23.636 22.741 24.322-0.29948-147.74-71.506 0.0466z" fill="#737070" opacity=".502"/><path d="m699.12 583.1-67.086-0.12882-0.19666 162.6 21.165-25.57 21.892-35.304 17.139-13.255 7.0261-1.5762z" fill="#b2d373" opacity=".702"/><path d="m614.77 738.76c-1.6258 3.9754 5.0172 6.0064 6.1083 10.134l4.3873 3.1979 6.4281-6.759 0.16553-162.35-17.033-3e-3z" fill="#d82e22" opacity=".702"/><path d="m570.19 583.69 44.734-0.60736-0.23418 157.19-10.749-23.404c2.627 7.176-5.0997-18.787-10.839-24.825l-4.6534-19.69-19.014-23.724z" fill="#e2da00" opacity=".601"/></g><g fill="none"><g stroke-width=".69094"><path d="m27.479 308.63 0.33587 199.27 229.7 0.74493" marker-end="url(#marker2-2-4-7)" marker-start="url(#Triangle-7-7-8)" stroke="#000"/><text x="125.17799" y="522.65198" font-family="sans-serif" font-size="16px" stroke="#000000" style="line-height:1.25" xml:space="preserve"><tspan x="125.17799" y="522.65198" fill="#1d1d1d" font-size="16px" stroke="none" stroke-width=".69094">Time</tspan></text><text transform="rotate(268.17)" x="-441.34607" y="2.7873662" font-family="sans-serif" font-size="16px" stroke="#000000" style="line-height:1.25" xml:space="preserve"><tspan x="-441.34607" y="2.7873662" fill="#1d1d1d" font-size="16px" stroke="none" stroke-width=".69094">Vorticity</tspan></text></g><g><path d="m57.63 353.97" opacity=".45233" stroke="#373737" stroke-width=".34547"/><path transform="matrix(.91406 0 0 .91406 13.269 331.28)" d="m23.01 89.98c4.8627-10.87 9.7254-21.741 17.557-25.09 7.8317-3.3496 18.632 0.8214 29.898 28.91 11.266 28.089 22.995 80.093 39.876 81.559 16.88 1.4661 38.909-47.605 59.053-70.074 20.143-22.469 29.305-20.393 53.767-0.99603 24.462 19.397 35.275 35.736 46.089 52.076" stroke="#030408" stroke-width="5.6693"/><ellipse cx="115.09" cy="491.1" rx="9.9303" ry="9.7684" stroke="#030408" stroke-width="3.4547"/></g></g><g stroke="#030408" stroke-width="3.4547"><ellipse cx="190.21" cy="413.87" rx="9.9303" ry="9.7684" fill="#030408"/><ellipse cx="256.71" cy="472.47" rx="9.9303" ry="9.7684" fill="none"/><ellipse cx="55.047" cy="389.59" rx="9.9303" ry="9.7684" fill="#030408"/><ellipse cx="36.478" cy="409.98" rx="9.9303" ry="9.7684" fill="none"/></g><text x="142.38086" y="290.63531" fill="#1d1d1d" font-family="sans-serif" font-size="18.667px" font-weight="bold" stroke-width=".69094" text-align="center" text-anchor="middle" style="line-height:1.25" xml:space="preserve"><tspan x="142.38086" y="290.63531" text-align="center">(e)  Peaks and valleys</tspan><tspan x="142.38086" y="308.91644" text-align="center">detection</tspan></text><path d="m191.27 669.52 25.109 12.795 21.974 23.636 22.239 26.143-0.69883-149.88-69.342 0.55367z" fill="#737070" opacity=".51746"/><g fill="none"><g stroke-width=".69094"><path d="m27.479 566.32 0.33587 199.27 229.7 0.74493" marker-end="url(#marker2-2-4-7-4)" marker-start="url(#Triangle-7-7-8-2)" stroke="#000"/><text x="125.17799" y="780.34607" font-family="sans-serif" font-size="16px" stroke="#000000" style="line-height:1.25" xml:space="preserve"><tspan x="125.17799" y="780.34607" fill="#1d1d1d" font-size="16px" stroke="none" stroke-width=".69094">Time</tspan></text><text transform="rotate(268.17)" x="-698.90833" y="-5.4543118" font-family="sans-serif" font-size="16px" stroke="#000000" style="line-height:1.25" xml:space="preserve"><tspan x="-698.90833" y="-5.4543118" fill="#1d1d1d" font-size="16px" stroke="none" stroke-width=".69094">Vorticity</tspan></text></g><g><path d="m57.63 611.67" opacity=".45233" stroke="#373737" stroke-width=".34547"/><path transform="matrix(.91406 0 0 .91406 13.269 588.97)" d="m23.01 89.98c4.8627-10.87 9.7254-21.741 17.557-25.09 7.8317-3.3496 18.632 0.8214 29.898 28.91 11.266 28.089 22.995 80.093 39.876 81.559 16.88 1.4661 38.909-47.605 59.053-70.074 20.143-22.469 29.305-20.393 53.767-0.99603 24.462 19.397 35.275 35.736 46.089 52.076" stroke="#030408" stroke-width="5.6693"/><ellipse cx="115.09" cy="748.79" rx="9.9303" ry="9.7684" stroke="#030408" stroke-width="3.4547"/></g></g><g stroke="#030408" stroke-width="3.4547"><ellipse cx="190.21" cy="671.57" rx="9.9303" ry="9.7684" fill="#030408"/><ellipse cx="256.71" cy="730.17" rx="9.9303" ry="9.7684" fill="none"/><ellipse cx="55.047" cy="647.29" rx="9.9303" ry="9.7684" fill="#030408"/><ellipse cx="36.478" cy="667.67" rx="9.9303" ry="9.7684" fill="none"/></g><text x="142.64865" y="556.32941" fill="none" font-family="sans-serif" font-size="18.667px" stroke="#000000" stroke-width=".69094" text-align="center" text-anchor="middle" style="line-height:1.25" xml:space="preserve"><tspan x="142.64865" y="556.32941" fill="#1d1d1d" font-family="sans-serif" font-size="18.667px" font-weight="bold" stroke="none" stroke-width=".69094" text-align="center" text-anchor="middle">(i)  Residual</tspan></text><path d="m295.6 656.42-12.469 18.715-0.4051-93.155 13.188 0.21347z" fill="#446ff2" opacity=".7"/><g fill="none"><path d="m282.14 566.32 0.33587 199.27 229.7 0.74493" marker-end="url(#marker2-2-4-7-4-6)" marker-start="url(#Triangle-7-7-8-2-9)" stroke="#000" stroke-width=".69094"/><text x="379.8421" y="780.34607" font-family="sans-serif" font-size="16px" stroke="#000000" stroke-width=".69094" style="line-height:1.25" xml:space="preserve"><tspan x="379.8421" y="780.34607" fill="#1d1d1d" font-size="16px" stroke="none" stroke-width=".69094">Time</tspan></text><g><path d="m312.29 611.67" opacity=".45233" stroke="#373737" stroke-width=".34547"/><path transform="matrix(.91406 0 0 .91406 267.93 588.97)" d="m23.01 89.98c4.8627-10.87 9.7254-21.741 17.557-25.09 7.8317-3.3496 18.632 0.8214 29.898 28.91 11.266 28.089 22.995 80.093 39.876 81.559 16.88 1.4661 38.909-47.605 59.053-70.074 20.143-22.469 29.305-20.393 53.767-0.99603 24.462 19.397 35.275 35.736 46.089 52.076" stroke="#030408" stroke-width="5.6693"/><ellipse cx="369.75" cy="748.79" rx="9.9303" ry="9.7684" stroke="#030408" stroke-width="3.4547"/></g></g><g stroke="#030408" stroke-width="3.4547"><ellipse cx="444.87" cy="671.57" rx="9.9303" ry="9.7684" fill="#030408"/><ellipse cx="511.38" cy="730.17" rx="9.9303" ry="9.7684" fill="none"/><ellipse cx="309.71" cy="647.29" rx="9.9303" ry="9.7684" fill="#030408"/></g><g fill="none"><ellipse cx="291.14" cy="667.67" rx="9.9303" ry="9.7684" stroke="#030408" stroke-width="3.4547"/><text x="397.31277" y="556.32941" font-family="sans-serif" font-size="18.667px" stroke="#000000" stroke-width=".69094" text-align="center" text-anchor="middle" style="line-height:1.25" xml:space="preserve"><tspan x="397.31277" y="556.32941" fill="#1d1d1d" font-family="sans-serif" font-size="18.667px" font-weight="bold" stroke="none" stroke-width=".69094" text-align="center" text-anchor="middle">(j)  Incipient stage</tspan></text><path d="m537.72 566.32 0.33587 199.27 229.7 0.74493" marker-end="url(#marker2-2-4-7-4-6-0)" marker-start="url(#Triangle-7-7-8-2-9-4)" stroke="#000" stroke-width=".69094"/></g><path d="m551.03 657.21-12.655 18.715-0.34323-92.35 13.188 0.0279z" fill="#446ff2" opacity=".702"/><g><text x="635.41425" y="780.34607" fill="none" font-family="sans-serif" font-size="16px" stroke="#000000" stroke-width=".69094" style="line-height:1.25" xml:space="preserve"><tspan x="635.41425" y="780.34607" fill="#1d1d1d" font-size="16px" stroke="none" stroke-width=".69094">Time</tspan></text><path d="m567.87 611.67" fill="none" opacity=".45233" stroke="#373737" stroke-width=".34547"/><path transform="matrix(.91406 0 0 .91406 523.5 588.97)" d="m23.01 89.98c4.8627-10.87 9.7254-21.741 17.557-25.09 7.8317-3.3496 18.632 0.8214 29.898 28.91 11.266 28.089 22.995 80.093 39.876 81.559 16.88 1.4661 38.909-47.605 59.053-70.074 20.143-22.469 29.305-20.393 53.767-0.99603 24.462 19.397 35.275 35.736 46.089 52.076" fill="none" stroke="#030408" stroke-width="5.6693"/><text x="652.27081" y="556.32941" fill="none" font-family="sans-serif" font-size="18.667px" stroke="#000000" stroke-width=".69094" text-align="center" text-anchor="middle" style="line-height:1.25" xml:space="preserve"><tspan x="655.52014" y="556.32941" fill="#1d1d1d" font-family="sans-serif" font-size="18.667px" font-weight="bold" stroke="none" stroke-width=".69094" text-align="center" text-anchor="middle">(k)  Final result </tspan></text><path d="m546.33 643.9 3.3675-10.323 1.1827-1.2959 2.3422-1.1062 1.5226-7.7033 2.354-5.0627 2.0093-0.4873 2.685 1.4966 4.0166-2.9864 2.5374 0.14459 0.65301-4.1278 4.4621 1.419v5.857l1.9427 1.8361 3.2305-5.5634 2.1921-3.3889 1.2778 1.2396 1.1009-5.3025 2.1495 10.086 0.81365 5.6819-1.2796 6.1151 0.63573 6.9031 0.87166 6.7706-0.18737 6.7304 3.0884 1.2971 1.3243-9.5195 3.3267 10.715 1.7005 8.0659 1.346 3.1862 0.83794 16.543 2.0912 4.6046 3.6878 1.5938 2.8502 14.139 0.94459 5.1412 1.2466 5.0434 2.3542-1.8151 4.2945 13.021-1.2443 8.3914 4.6937 3.5189-1.4657 7.718 3.05 8.2045 2.2641-14.806 0.82765-5.5138 2.9624 6.3612 3.0704 3.3752 4.1842-5.4134 3.0722-23.18 0.81822-16.905 1.2697-15.342 3.7772-1.9812 2.2441-8.5789 2.4362-3.507 3.9154 4.9278 3.1676-2.619 1.6254-0.26222v3.9644l1.9452 3.5921 2.2488-12.111 2.3587-0.15324 1.862 2.6542 2.4692-1.3147 2.4264-9.6065 5.3634-7.1272 9.3545-8.1173 5.7553-25.618 2.4759-1.1563 3.0254 4.9266 1.7497-0.95373 0.68717 77.745 4.6094-4.679 4.4393-13.78-0.11264-5.6205 12.12-10.662-0.10533-5.3093 6.3943-8.2775 4.8227 4.931 3.0556-4.9125 5.3303 16.143 1.4092 3.2615 4.1766 29.577 1.4944 2.8558v5.4582l3.3358-6.3482-0.99814-12.604 2.0821-3.4806 2.6364-36.87 1.5742 1.5804 1.1158 3.819 0.98707-4.426 1.0986-0.41523 1.6669 19.386 1.6817 0.50797 0.80613-9.1218 1.8124-0.88221 1.0501 9.6948 3.111 7.817" fill="none" stroke="#5f5f5f" stroke-width="5.1821"/><g fill="none" stroke-width=".69094"><path d="m26.944 49.363 0.33587 199.27 229.7 0.74494" marker-end="url(#marker2-5)" marker-start="url(#Triangle-71)" stroke="#000"/><text x="124.64304" y="263.38748" font-family="sans-serif" font-size="16px" stroke="#000000" style="line-height:1.25" xml:space="preserve"><tspan x="124.64304" y="263.38748" fill="#1d1d1d" font-size="16px" stroke="none" stroke-width=".69094">Time</tspan></text><text transform="rotate(268.17)" x="-182.21417" y="11.078666" font-family="sans-serif" font-size="16px" stroke="#000000" style="line-height:1.25" xml:space="preserve"><tspan x="-182.21417" y="11.078666" fill="#1d1d1d" font-size="16px" stroke="none" stroke-width=".69094">Vorticity</tspan></text></g><path d="m57.095 94.709" fill="none" opacity=".45233" stroke="#373737" stroke-width=".34547"/><path d="m28.54 118.69 3.3675-10.323 1.1827-1.2959 2.3422-1.1062 1.5226-7.7033 2.354-5.0627 2.0093-0.4873 2.685 1.4966 4.0166-2.9864 2.5374 0.14458 0.653-4.1278 4.4621 1.419v5.857l1.9427 1.8361 3.2305-5.5634 2.1921-3.3889 1.2778 1.2396 1.1009-5.3025 2.1495 10.086 0.81365 5.6819-1.2796 6.1151 0.63573 6.9031 0.87166 6.7706-0.18737 6.7304 3.0884 1.2971 1.3243-9.5195 3.3267 10.715 1.7005 8.0659 1.346 3.1862 0.83794 16.543 2.0912 4.6046 3.6878 1.5938 2.8502 14.139 0.94459 5.1412 1.2466 5.0434 2.3542-1.8151 4.2945 13.021-1.2443 8.3914 4.6937 3.5189-1.4657 7.718 3.05 8.2045 2.2641-14.806 0.82765-5.5138 2.9624 6.3612 3.0704 3.3752 4.1842-5.4134 3.0722-23.18 0.81822-16.905 1.2697-15.342 3.7772-1.9812 2.2441-8.5789 2.4362-3.507 3.9154 4.9278 3.1676-2.619 1.6254-0.26222v3.9644l1.9452 3.5921 2.2488-12.111 2.3587-0.15324 1.862 2.6542 2.4692-1.3147 2.4264-9.6065 5.3634-7.1272 9.3545-8.1173 5.7553-25.618 2.4759-1.1563 3.0254 4.9266 1.7497-0.95373 0.68717 77.745 4.6094-4.679 4.4393-13.78-0.11264-5.6205 12.12-10.662-0.10533-5.3093 6.3943-8.2775 4.8227 4.931 3.0556-4.9125 5.3303 16.143 1.4092 3.2615 4.1766 29.577 1.4944 2.8558v5.4582l3.3358-6.3482-0.99814-12.604 2.0821-3.4806 2.6364-36.87 1.5742 1.5804 1.1158 3.819 0.98707-4.426 1.0986-0.41523 1.6669 19.386 1.6817 0.50797 0.80613-9.1218 1.8124-0.88221 1.0501 9.6948 3.111 7.817" fill="none" stroke="#5f5f5f" stroke-width="5.1821"/><g fill="none" stroke-width=".69094"><text x="33.509487" y="35.03104" font-family="sans-serif" font-size="18.667px" stroke="#000000" style="line-height:1.25" xml:space="preserve"><tspan x="33.509487" y="35.03104" fill="#1d1d1d" font-family="sans-serif" font-size="18.667px" font-weight="bold" stroke="none" stroke-width=".69094">(a) Original vorticity</tspan></text><path d="m282.12 53.26 0.33587 199.27 229.7 0.74495" marker-end="url(#marker2)" marker-start="url(#Triangle)" stroke="#000"/><text x="379.82031" y="267.28488" font-family="sans-serif" font-size="16px" stroke="#000000" style="line-height:1.25" xml:space="preserve"><tspan x="379.82031" y="267.28488" fill="#1d1d1d" font-size="16px" stroke="none" stroke-width=".69094">Time</tspan></text></g><path d="m312.27 98.607" fill="none" opacity=".45233" stroke="#373737" stroke-width=".34547"/><path transform="matrix(.91406 0 0 .91406 262.41 35.052)" d="m24.003 72.099c2.1392 2.766 4.2783 5.532 5.5978 3.0934 1.3195-2.4386 1.8193-10.082 4.6723-12.249 2.853-2.1671 8.0592 1.1419 11.611-1.1688 3.5515-2.3107 5.4483-10.241 9.745-8.7613 4.2967 1.4799 10.993 12.37 20.471 32.44s21.737 49.318 30.485 51.139c8.7479 1.821 13.983-23.785 22.174-35.857 8.191-12.071 19.337-10.607 27.588-14.522 8.2517-3.9151 13.609-13.21 18.092-17.6s8.0916-3.8772 11.109 1.7845c3.0171 5.6617 5.4424 16.471 8.5201 20.609 3.0777 4.1378 6.8076 1.6038 11.501-3.044 4.6934-4.6477 10.35-11.409 16.519-8.0145 6.1686 3.3942 12.848 16.943 18.349 17.518s9.8218-11.823 12.698-12.834 4.3073 9.3661 6.4117 13.912c2.1044 4.5455 4.8818 3.2591 7.6593 1.9727" fill="none" stroke="#f25b54" stroke-width="5.6693"/><g stroke-width=".69094"><text x="397.29099" y="26.504608" fill="#1d1d1d" font-family="sans-serif" font-size="18.667px" font-weight="bold" text-anchor="middle" style="line-height:1.25" xml:space="preserve"><tspan x="397.29099" y="26.504608" text-align="center">(b) Vorticity filtered</tspan><tspan x="397.29099" y="44.785732" text-align="center">(Lanczos filter)</tspan></text><path d="m537.3 56.569 0.33587 199.27 229.7 0.74494" fill="none" marker-end="url(#marker2-2)" marker-start="url(#Triangle-7)" stroke="#000"/><text x="634.99768" y="270.59366" fill="none" font-family="sans-serif" font-size="16px" stroke="#000000" style="line-height:1.25" xml:space="preserve"><tspan x="634.99768" y="270.59366" fill="#1d1d1d" font-size="16px" stroke="none" stroke-width=".69094">Time</tspan></text></g><path d="m567.45 101.92" fill="none" opacity=".45233" stroke="#373737" stroke-width=".34547"/><path transform="matrix(.91406 0 0 .91406 517.59 38.36)" d="m22.114 65.535c1.8046-0.02079 3.6092-0.04158 4.4127 0.4839s0.60614 1.5972 3.1268-0.07886c2.5206-1.6761 7.7592-6.0997 12.633-7.791 4.8741-1.6912 9.3834-0.65 18.924 12.294 9.541 12.944 24.113 37.789 34.069 49.657 9.9561 11.868 15.296 10.758 25.559 0.80381 10.263-9.9545 25.449-28.753 34.808-38.6s12.89-10.741 21.894-8.5283c9.0038 2.2132 23.48 7.5341 31.889 8.7269 8.4097 1.1929 10.753-1.7423 13.194-2.2005 2.441-0.45823 4.9797 1.5604 10.043 8.3721 5.0636 6.8117 12.652 18.416 18.573 25.035 5.9213 6.619 10.176 8.2523 14.43 9.8857" fill="none" stroke="#547af2" stroke-width="5.6693"/><g stroke-width=".69094"><text x="652.48254" y="25.890476" fill="#1d1d1d" font-family="sans-serif" font-size="18.667px" font-weight="bold" text-anchor="middle" style="line-height:1.25" xml:space="preserve"><tspan x="652.48254" y="25.890476" text-align="center">(c) First smoothing</tspan><tspan x="652.48254" y="44.1716" text-align="center">(Savitzky-Golay filter)</tspan></text><path d="m792.48 57.823 0.33588 199.27 229.7 0.74493" fill="none" marker-end="url(#marker2-2-4)" marker-start="url(#Triangle-7-7)" stroke="#000"/><text x="890.17493" y="271.84753" fill="none" font-family="sans-serif" font-size="16px" stroke="#000000" style="line-height:1.25" xml:space="preserve"><tspan x="890.17493" y="271.84753" fill="#1d1d1d" font-size="16px" stroke="none" stroke-width=".69094">Time</tspan></text></g><path d="m822.63 103.17" fill="none" opacity=".45233" stroke="#373737" stroke-width=".34547"/><path transform="matrix(.91406 0 0 .91406 772.77 39.614)" d="m24.34 72.329c4.4193-4.9864 8.8387-9.9729 16.449-10.381 7.61-0.40764 18.41 3.7634 29.164 15.938 10.753 12.175 21.459 32.353 37.807 32.57 16.348 0.21616 38.339-19.53 57.388-27.174 19.05-7.6443 35.157-3.187 45.7 0.51812 10.543 3.7052 15.522 6.658 23.4 13.041 7.8787 6.3825 18.657 16.194 29.436 26.006" fill="none" stroke="#030408" stroke-width="5.6693"/><text transform="translate(-114.19)" x="1021.8285" y="25.890476" fill="none" font-family="sans-serif" font-size="18.667px" stroke="#000000" stroke-width=".69094" text-align="center" text-anchor="middle" style="inline-size:307.295;line-height:1.25;white-space:pre" xml:space="preserve"><tspan x="1021.8285" y="25.890476"><tspan fill="#1d1d1d" font-weight="bold" stroke="none">(d) Second smoothing
</tspan></tspan><tspan x="1021.8285" y="49.223854"><tspan fill="#1d1d1d" font-weight="bold" stroke="none">(Savitzky-Golay filter)</tspan></tspan></text></g><path d="m445.46 316.97 69.019-0.21162 0.15478 155.74-4.1342-2.535-3.8236-9.1904-15.435-18.915-18.919-16.336-26.653-9.6505-0.1718-43.048z" fill="#e2da00" opacity=".601"/><g fill="none"><ellipse cx="511.91" cy="471.52" rx="9.9303" ry="9.7684" stroke="#030408" stroke-width="3.4547"/><path transform="matrix(.91406 0 0 .91406 267.39 331.28)" d="m23.01 89.98c4.8627-10.87 9.7254-21.741 17.557-25.09 7.8317-3.3496 18.632 0.8214 29.898 28.91 11.266 28.089 22.995 80.093 39.876 81.559 16.88 1.4661 38.909-47.605 59.053-70.074 20.143-22.469 29.305-20.393 53.767-0.99603 24.462 19.397 35.275 35.736 46.089 52.076" stroke="#030408" stroke-width="5.6693"/><path d="m281.61 308.63 0.33587 199.27 229.7 0.74493" marker-end="url(#marker2-2-4-7-2)" marker-start="url(#Triangle-7-7-8-0)" stroke="#000" stroke-width=".69094"/><text x="379.30396" y="522.65204" font-family="sans-serif" font-size="16px" stroke="#000000" stroke-width=".69094" style="line-height:1.25" xml:space="preserve"><tspan x="379.30396" y="522.65204" fill="#1d1d1d" font-size="16px" stroke="none" stroke-width=".69094">Time</tspan></text><path d="m311.76 353.97" opacity=".45233" stroke="#373737" stroke-width=".34547"/><ellipse cx="369.21" cy="491.1" rx="9.9303" ry="9.7684" stroke="#030408" stroke-width="3.4547"/></g><ellipse cx="444.33" cy="413.87" rx="9.9303" ry="9.7684" fill="#030408" stroke="#030408" stroke-width="3.4547"/><ellipse cx="309.17" cy="389.59" rx="9.9303" ry="9.7684" fill="#030408" stroke="#030408" stroke-width="3.4547"/><g fill="none"><ellipse cx="290.6" cy="409.98" rx="9.9303" ry="9.7684" stroke="#030408" stroke-width="3.4547"/><text x="396.51392" y="298.30124" font-family="sans-serif" font-size="18.667px" stroke="#000000" stroke-width=".69094" text-align="center" text-anchor="middle" style="line-height:1.25" xml:space="preserve"><tspan x="396.51392" y="298.30124" fill="#1d1d1d" font-family="sans-serif" font-size="18.667px" font-weight="bold" stroke="none" stroke-width=".69094" text-align="center" text-anchor="middle">(f)  Intensification stage</tspan></text><ellipse cx="767.17" cy="471.77" rx="9.9303" ry="9.7684" stroke="#030408" stroke-width="3.4547"/></g><path d="m571.36 315.05-34.272-0.14756 0.32455 97.283 7.3104-0.20598 6.6215-13.782 19.742-11.843 0.24511-16.356z" fill="#b2d373" opacity=".7"/><path d="m702.44 314.19-79.012-0.15465 0.25589 175.79 24.99-19.523 26.553-37.688 17.264-17.06 9.9231-2.5934z" fill="#b2d373" opacity=".7"/><g fill="none"><path d="m536.78 308.62 0.33587 199.27 229.7 0.74495" marker-end="url(#marker2-2-4-7-2-2)" marker-start="url(#Triangle-7-7-8-0-0)" stroke="#000" stroke-width=".69094"/><text x="634.4812" y="522.6449" font-family="sans-serif" font-size="16px" stroke="#000000" stroke-width=".69094" style="line-height:1.25" xml:space="preserve"><tspan x="634.4812" y="522.6449" fill="#1d1d1d" font-size="16px" stroke="none" stroke-width=".69094">Time</tspan></text><g><path d="m566.93 353.97" opacity=".45233" stroke="#373737" stroke-width=".34547"/><path transform="matrix(.91406 0 0 .91406 522.57 331.27)" d="m23.01 89.98c4.8627-10.87 9.7254-21.741 17.557-25.09 7.8317-3.3496 18.632 0.8214 29.898 28.91 11.266 28.089 22.995 80.093 39.876 81.559 16.88 1.4661 38.909-47.605 59.053-70.074 20.143-22.469 29.305-20.393 53.767-0.99603 24.462 19.397 35.275 35.736 46.089 52.076" stroke="#030408" stroke-width="5.6693"/><ellipse cx="624.39" cy="491.09" rx="9.9303" ry="9.7684" stroke="#030408" stroke-width="3.4547"/></g></g><ellipse cx="699.51" cy="413.87" rx="9.9303" ry="9.7684" fill="#030408" stroke="#030408" stroke-width="3.4547"/><ellipse cx="564.35" cy="389.59" rx="9.9303" ry="9.7684" fill="#030408" stroke="#030408" stroke-width="3.4547"/><g fill="none"><ellipse cx="545.78" cy="409.97" rx="9.9303" ry="9.7684" stroke="#030408" stroke-width="3.4547"/><text x="651.69122" y="298.2941" font-family="sans-serif" font-size="18.667px" stroke="#000000" stroke-width=".69094" text-align="center" text-anchor="middle" style="line-height:1.25" xml:space="preserve"><tspan x="651.69122" y="298.2941" fill="#1d1d1d" font-family="sans-serif" font-size="18.667px" font-weight="bold" stroke="none" stroke-width=".69094" text-align="center" text-anchor="middle">(g)  Decay stage</tspan></text><ellipse cx="1019.8" cy="472.47" rx="9.9303" ry="9.7684" stroke="#030408" stroke-width="3.4547"/></g><path d="m865.49 472.28 5.3518 16.995 11.194 2.9866 12.945-14.875 0.15022-165.25-29.542 0.29838z" fill="#d82e22" opacity=".7"/><g fill="none"><path d="m791.96 308.63 0.33588 199.27 229.7 0.74494" marker-end="url(#marker2-2-4-7-2-2-8)" marker-start="url(#Triangle-7-7-8-0-0-6)" stroke="#000" stroke-width=".69094"/><text x="889.65845" y="522.65198" font-family="sans-serif" font-size="16px" stroke="#000000" stroke-width=".69094" style="line-height:1.25" xml:space="preserve"><tspan x="889.65845" y="522.65198" fill="#1d1d1d" font-size="16px" stroke="none" stroke-width=".69094">Time</tspan></text><g><path d="m822.11 353.97" opacity=".45233" stroke="#373737" stroke-width=".34547"/><path transform="matrix(.91406 0 0 .91406 777.75 331.28)" d="m23.01 89.98c4.8627-10.87 9.7254-21.741 17.557-25.09 7.8317-3.3496 18.632 0.8214 29.898 28.91 11.266 28.089 22.995 80.093 39.876 81.559 16.88 1.4661 38.909-47.605 59.053-70.074 20.143-22.469 29.305-20.393 53.767-0.99603 24.462 19.397 35.275 35.736 46.089 52.076" stroke="#030408" stroke-width="5.6693"/><ellipse cx="879.57" cy="491.1" rx="9.9303" ry="9.7684" stroke="#030408" stroke-width="3.4547"/></g></g><g stroke="#030408" stroke-width="3.4547"><ellipse cx="954.69" cy="413.87" rx="9.9303" ry="9.7684" fill="#030408"/><ellipse cx="819.53" cy="389.59" rx="9.9303" ry="9.7684" fill="#030408"/><ellipse cx="800.96" cy="409.98" rx="9.9303" ry="9.7684" fill="none"/></g><text x="906.86847" y="298.30124" fill="none" font-family="sans-serif" font-size="18.667px" stroke="#000000" stroke-width=".69094" text-align="center" text-anchor="middle" style="line-height:1.25" xml:space="preserve"><tspan x="906.86847" y="298.30124" fill="#1d1d1d" font-family="sans-serif" font-size="18.667px" font-weight="bold" stroke="none" stroke-width=".69094" text-align="center" text-anchor="middle">(h)  Mature stage</tspan></text><g fill="#030408" font-family="sans-serif" font-size="16px" font-weight="bold" stroke="#030408" stroke-width="3.7795"><text text-align="center" style="line-height:1.25;shape-inside:url(#rect16);white-space:pre" xml:space="preserve"/><text text-align="center" style="line-height:1.25;shape-inside:url(#rect17);white-space:pre" xml:space="preserve"/><text text-align="center" style="line-height:1.25;shape-inside:url(#rect18);white-space:pre" xml:space="preserve"/><text text-align="center" style="line-height:1.25;shape-inside:url(#rect19);white-space:pre" xml:space="preserve"/></g><text x="1020.5433" y="24.613834" fill="#a18c65" font-family="sans-serif" font-size="18.667px" font-weight="bold" opacity=".503" stroke="#5f5f5f" stroke-width="3.7795" text-align="center" text-anchor="middle" style="line-height:1.25" xml:space="preserve"><tspan x="1020.5433" y="24.613834"/></text><g stroke-linejoin="round" stroke-width="3.7795"><path d="m490.66 115.49 3.4997 5.2496 2.0998 26.248 4.5497 43.397 5.9496-52.146" fill="none" stroke="#f25b54" stroke-dasharray="3.77953005,3.77953005" style="paint-order:markers stroke fill"/><path d="m291.18 102.89-3.8497 45.847-3.1498-44.797" fill="none" stroke="#f25b54" stroke-dasharray="3.77953, 3.77953" style="paint-order:markers stroke fill"/><text x="388.47128" y="204.73485" fill="#000000" font-family="sans-serif" font-size="16px" text-align="center" text-anchor="middle" style="line-height:1;paint-order:markers stroke fill" xml:space="preserve"><tspan x="388.47128" y="204.73485" style="line-height:1">Spurious oscillations</tspan><tspan x="388.47128" y="220.73485" style="line-height:1">removed</tspan></text></g><g fill="none" stroke="#000" stroke-linejoin="round"><ellipse cx="497.66" cy="157.84" rx="19.82" ry="38.369" stroke-dasharray="4.53540693,1.1338583" stroke-width="1.1339" style="paint-order:markers stroke fill"/><ellipse cx="287.28" cy="124.22" rx="10.811" ry="38.459" stroke-dasharray="4.53540669,1.1338583" stroke-width="1.1339" style="paint-order:markers stroke fill"/><path d="m302.38 165.89c13.999 17.499 13.299 17.499 13.299 17.499" marker-start="url(#marker2)" stroke-width="1.8898" style="paint-order:markers stroke fill"/><path d="m470.05 172.14c-13.999 17.499-13.299 17.499-13.299 17.499" marker-start="url(#marker2-3)" stroke-width="1.8898" style="paint-order:markers stroke fill"/><ellipse cx="720.68" cy="114.29" rx="15.809" ry="21.409" stroke-dasharray="4.5354003,1.1338583" stroke-width="1.1339" style="paint-order:markers stroke fill"/></g><g stroke-linejoin="round"><text x="691.48932" y="183.25661" fill="#000000" font-family="sans-serif" font-size="16px" stroke-width="3.7795" text-align="center" text-anchor="middle" style="line-height:1;paint-order:markers stroke fill" xml:space="preserve"><tspan x="691.48932" y="183.25661" style="line-height:1">Residual noise</tspan></text><path d="m711.06 146.34c-13.999 17.499-13.299 17.499-13.299 17.499" fill="none" marker-start="url(#marker2-3-0)" stroke="#000" stroke-width="1.8898" style="paint-order:markers stroke fill"/><text x="110.45885" y="593.32629" fill="#000000" font-family="sans-serif" font-size="16px" stroke-width="3.1861" text-align="center" text-anchor="middle" style="line-height:1;paint-order:markers stroke fill" xml:space="preserve"><tspan x="110.45885" y="593.32629" text-align="center" style="line-height:1">Intensification not</tspan><tspan x="110.45885" y="609.32629" text-align="center" style="line-height:1">followed by mature</tspan><tspan x="110.45885" y="625.32629" text-align="center" style="line-height:1">is replaced by</tspan><tspan x="113.27135" y="641.32629" text-align="center" style="line-height:1">residual </tspan></text><path d="m171.35 641.8c-21.498-6.327-21.232-5.6792-21.232-5.6792" fill="none" marker-start="url(#marker2-3-0-3)" stroke="#000" stroke-width="1.8898" style="paint-order:markers stroke fill"/><text x="405.43317" y="592.61194" fill="#000000" font-family="sans-serif" font-size="16px" stroke-width="3.1861" text-align="center" text-anchor="middle" style="line-height:1;paint-order:markers stroke fill" xml:space="preserve"><tspan x="405.43317" y="592.61194" text-align="center" style="line-height:1">From the start </tspan><tspan x="405.43317" y="608.61194" text-align="center" style="line-height:1">up until 40%</tspan><tspan x="405.43317" y="624.61194" text-align="center" style="line-height:1">of way to the</tspan><tspan x="405.43317" y="640.61194" text-align="center" style="line-height:1">next peak/valey</tspan></text><path d="m313.82 617.22c21.956-4.4827 21.637-3.8597 21.637-3.8597" fill="none" marker-start="url(#marker2-3-0-3-9)" stroke="#000" stroke-width="1.8898" style="paint-order:markers stroke fill"/><text x="1004.0493" y="327.49542" fill="#000000" font-family="sans-serif" font-size="16px" stroke-width="3.1861" text-align="center" text-anchor="middle" style="line-height:1;paint-order:markers stroke fill" xml:space="preserve"><tspan x="1004.0493" y="327.49542" text-align="center" style="line-height:1">From the valley </tspan><tspan x="1004.0493" y="343.49542" text-align="center" style="line-height:1">up to 12.5%</tspan><tspan x="1004.0493" y="359.49542" text-align="center" style="line-height:1">of the way to the</tspan><tspan x="1004.0493" y="375.49542" text-align="center" style="line-height:1">preceeding and</tspan><tspan x="1004.0493" y="391.49542" text-align="center" style="line-height:1">following peak</tspan><tspan x="1004.0493" y="407.49542" text-align="center" style="line-height:1"/></text><path d="m908.54 360.5c21.956-4.4827 21.637-3.8597 21.637-3.8597" fill="none" marker-start="url(#marker2-3-0-3-9-5)" stroke="#000" stroke-width="1.8898" style="paint-order:markers stroke fill"/><text x="845.43994" y="636.15985" fill="#000000" font-family="sans-serif" font-size="16px" stroke-width="3.7795" text-align="center" text-anchor="middle" style="line-height:1;paint-order:markers stroke fill" xml:space="preserve"><tspan x="845.43994" y="636.15985" style="line-height:1">Original vorticity</tspan></text><text x="856.96185" y="686.35693" fill="#000000" font-family="sans-serif" font-size="16px" stroke-width="3.7795" text-align="center" text-anchor="middle" style="line-height:1;paint-order:markers stroke fill" xml:space="preserve"><tspan x="856.96185" y="686.35693" style="line-height:1">Processed and</tspan><tspan x="856.96185" y="702.35693" style="line-height:1">scaled vorticity</tspan></text><path d="m784 658.4c17.378-14.149 17.384-13.449 17.384-13.449" fill="none" marker-start="url(#marker2-3-0-3-9-3)" stroke="#000" stroke-width="1.8898" style="paint-order:markers stroke fill"/><path d="m781.6 724.81c17.378-14.149 17.384-13.449 17.384-13.449" fill="none" marker-start="url(#marker2-3-0-3-9-3-4)" stroke="#000" stroke-width="1.8898" style="paint-order:markers stroke fill"/></g></svg>
